HIERARCHY
ROOT Hips
{
	OFFSET -14.64140 90.27770 -84.91600
	CHANNELS 6 Xposition Yposition Zposition Zrotation Xrotation Yrotation
	JOINT Spine
	{
		OFFSET 0.00000 13.20850 -1.60436
		CHANNELS 3 Zrotation Xrotation Yrotation
		JOINT Spine1
		{
			OFFSET 0.00000 8.61716 0.00000
			CHANNELS 3 Zrotation Xrotation Yrotation
			JOINT Spine2
			{
				OFFSET 0.00000 8.61717 0.00000
				CHANNELS 3 Zrotation Xrotation Yrotation
				JOINT Spine3
				{
					OFFSET 0.00000 8.61717 0.00000
					CHANNELS 3 Zrotation Xrotation Yrotation
					JOINT Neck
					{
						OFFSET 0.00000 11.07920 1.10792
						CHANNELS 3 Zrotation Xrotation Yrotation
						JOINT Neck1
						{
							OFFSET 0.00000 7.08032 0.00000
							CHANNELS 3 Zrotation Xrotation Yrotation
							JOINT Head
							{
								OFFSET 0.00000 7.08031 0.00000
								CHANNELS 3 Zrotation Xrotation Yrotation
								End site
								{
									OFFSET 0.00000 0.00000 0.00000
								}
							}
						}
					}
					JOINT RightShoulder
					{
						OFFSET -0.01000 7.91373 5.19711
						CHANNELS 3 Zrotation Xrotation Yrotation
						JOINT RightArm
						{
							OFFSET -18.41580 0.00000 0.00000
							CHANNELS 3 Zrotation Xrotation Yrotation
							JOINT RightForeArm
							{
								OFFSET -29.11090 0.00000 0.00000
								CHANNELS 3 Zrotation Xrotation Yrotation
								JOINT RightHand
								{
									OFFSET -24.65040 0.00000 0.00000
									CHANNELS 3 Zrotation Xrotation Yrotation
									JOINT RightHandThumb1
									{
										OFFSET -5.35114 -0.85590 3.97906
										CHANNELS 3 Zrotation Xrotation Yrotation
										JOINT RightHandThumb2
										{
											OFFSET -4.52789 0.00000 0.00000
											CHANNELS 3 Zrotation Xrotation Yrotation
											JOINT RightHandThumb3
											{
												OFFSET -2.46976 0.00000 0.00000
												CHANNELS 3 Zrotation Xrotation Yrotation
												End site
												{
													OFFSET 0.00000 0.00000 0.00000
												}
											}
										}
									}
									JOINT RightHandIndex1
									{
										OFFSET -14.26970 0.00000 2.88139
										CHANNELS 3 Zrotation Xrotation Yrotation
										JOINT RightHandIndex2
										{
											OFFSET -5.48836 0.00000 0.00000
											CHANNELS 3 Zrotation Xrotation Yrotation
											JOINT RightHandIndex3
											{
												OFFSET -3.01859 0.00000 0.00000
												CHANNELS 3 Zrotation Xrotation Yrotation
												End site
												{
													OFFSET 0.00000 0.00000 0.00000
												}
											}
										}
									}
									JOINT RightHandMiddle1
									{
										OFFSET -14.26970 0.00000 -0.09147
										CHANNELS 3 Zrotation Xrotation Yrotation
										JOINT RightHandMiddle2
										{
											OFFSET -6.17441 0.00000 0.00000
											CHANNELS 3 Zrotation Xrotation Yrotation
											JOINT RightHandMiddle3
											{
												OFFSET -3.56743 0.00000 0.00000
												CHANNELS 3 Zrotation Xrotation Yrotation
												End site
												{
													OFFSET 0.00000 0.00000 0.00000
												}
											}
										}
									}
									JOINT RightHandRing1
									{
										OFFSET -12.69180 0.00000 -3.06433
										CHANNELS 3 Zrotation Xrotation Yrotation
										JOINT RightHandRing2
										{
											OFFSET -5.62556 0.00000 0.00000
											CHANNELS 3 Zrotation Xrotation Yrotation
											JOINT RightHandRing3
											{
												OFFSET -3.56744 0.00000 0.00000
												CHANNELS 3 Zrotation Xrotation Yrotation
												End site
												{
													OFFSET 0.00000 0.00000 0.00000
												}
											}
										}
									}
									JOINT RightHandPinky1
									{
										OFFSET -11.11390 0.00000 -6.03719
										CHANNELS 3 Zrotation Xrotation Yrotation
										JOINT RightHandPinky2
										{
											OFFSET -4.52789 0.00000 0.00000
											CHANNELS 3 Zrotation Xrotation Yrotation
											JOINT RightHandPinky3
											{
												OFFSET -2.46976 0.00000 0.00000
												CHANNELS 3 Zrotation Xrotation Yrotation
												End site
												{
													OFFSET 0.00000 0.00000 0.00000
												}
											}
										}
									}
								}
							}
						}
					}
					JOINT LeftShoulder
					{
						OFFSET 0.01000 7.91373 5.19711
						CHANNELS 3 Zrotation Xrotation Yrotation
						JOINT LeftArm
						{
							OFFSET 18.41580 0.00000 0.00000
							CHANNELS 3 Zrotation Xrotation Yrotation
							JOINT LeftForeArm
							{
								OFFSET 29.11090 0.00000 0.00000
								CHANNELS 3 Zrotation Xrotation Yrotation
								JOINT LeftHand
								{
									OFFSET 24.65040 0.00000 0.00000
									CHANNELS 3 Zrotation Xrotation Yrotation
									JOINT LeftHandThumb1
									{
										OFFSET 5.35114 -0.85590 3.97906
										CHANNELS 3 Zrotation Xrotation Yrotation
										JOINT LeftHandThumb2
										{
											OFFSET 4.52789 0.00000 0.00000
											CHANNELS 3 Zrotation Xrotation Yrotation
											JOINT LeftHandThumb3
											{
												OFFSET 2.46977 0.00000 0.00000
												CHANNELS 3 Zrotation Xrotation Yrotation
												End site
												{
													OFFSET 0.00000 0.00000 0.00000
												}
											}
										}
									}
									JOINT LeftHandIndex1
									{
										OFFSET 14.26970 0.00000 2.88139
										CHANNELS 3 Zrotation Xrotation Yrotation
										JOINT LeftHandIndex2
										{
											OFFSET 5.48836 0.00000 0.00000
											CHANNELS 3 Zrotation Xrotation Yrotation
											JOINT LeftHandIndex3
											{
												OFFSET 3.01859 0.00000 0.00000
												CHANNELS 3 Zrotation Xrotation Yrotation
												End site
												{
													OFFSET 0.00000 0.00000 0.00000
												}
											}
										}
									}
									JOINT LeftHandMiddle1
									{
										OFFSET 14.26970 0.00000 -0.09147
										CHANNELS 3 Zrotation Xrotation Yrotation
										JOINT LeftHandMiddle2
										{
											OFFSET 6.17440 0.00000 0.00000
											CHANNELS 3 Zrotation Xrotation Yrotation
											JOINT LeftHandMiddle3
											{
												OFFSET 3.56744 0.00000 0.00000
												CHANNELS 3 Zrotation Xrotation Yrotation
												End site
												{
													OFFSET 0.00000 0.00000 0.00000
												}
											}
										}
									}
									JOINT LeftHandRing1
									{
										OFFSET 12.69180 0.00000 -3.06433
										CHANNELS 3 Zrotation Xrotation Yrotation
										JOINT LeftHandRing2
										{
											OFFSET 5.62556 0.00000 0.00000
											CHANNELS 3 Zrotation Xrotation Yrotation
											JOINT LeftHandRing3
											{
												OFFSET 3.56744 0.00000 0.00000
												CHANNELS 3 Zrotation Xrotation Yrotation
												End site
												{
													OFFSET 0.00000 0.00000 0.00000
												}
											}
										}
									}
									JOINT LeftHandPinky1
									{
										OFFSET 11.11390 0.00000 -6.03719
										CHANNELS 3 Zrotation Xrotation Yrotation
										JOINT LeftHandPinky2
										{
											OFFSET 4.52789 0.00000 0.00000
											CHANNELS 3 Zrotation Xrotation Yrotation
											JOINT LeftHandPinky3
											{
												OFFSET 2.46976 0.00000 0.00000
												CHANNELS 3 Zrotation Xrotation Yrotation
												End site
												{
													OFFSET 0.00000 0.00000 0.00000
												}
											}
										}
									}
								}
							}
						}
					}
					JOINT pCube4
					{
						OFFSET 0.00000 10.91090 1.10792
						CHANNELS 3 Zrotation Xrotation Yrotation
						End site
						{
							OFFSET 0.00000 0.00000 0.00000
						}
					}
				}
			}
		}
	}
	JOINT RightUpLeg
	{
		OFFSET -9.98441 0.00000 0.00000
		CHANNELS 3 Zrotation Xrotation Yrotation
		JOINT RightLeg
		{
			OFFSET 0.00000 -42.11790 0.00000
			CHANNELS 3 Zrotation Xrotation Yrotation
			JOINT RightFoot
			{
				OFFSET 0.00000 -45.00020 -0.00001
				CHANNELS 3 Zrotation Xrotation Yrotation
				JOINT RightForeFoot
				{
					OFFSET 0.00000 -3.74820 0.00000
					CHANNELS 3 Zrotation Xrotation Yrotation
					JOINT RightToeBase
					{
						OFFSET 0.00000 0.06325 14.43120
						CHANNELS 3 Zrotation Xrotation Yrotation
						End site
						{
							OFFSET 0.00000 0.00000 0.00000
						}
					}
				}
			}
		}
	}
	JOINT LeftUpLeg
	{
		OFFSET 9.98441 0.00000 0.00000
		CHANNELS 3 Zrotation Xrotation Yrotation
		JOINT LeftLeg
		{
			OFFSET 0.00000 -42.11800 0.00000
			CHANNELS 3 Zrotation Xrotation Yrotation
			JOINT LeftFoot
			{
				OFFSET 0.00000 -45.00070 0.00000
				CHANNELS 3 Zrotation Xrotation Yrotation
				JOINT LeftForeFoot
				{
					OFFSET 0.00000 -3.74824 0.00000
					CHANNELS 3 Zrotation Xrotation Yrotation
					JOINT LeftToeBase
					{
						OFFSET 0.00000 0.06325 14.43110
						CHANNELS 3 Zrotation Xrotation Yrotation
						End site
						{
							OFFSET 0.00000 0.00000 0.00000
						}
					}
				}
			}
		}
	}
}
MOTION
Frames: 4
Frame Time: 0.050000
0.017775071315588458 -0.004367414894061257 0.008790608202928795 -0.010187166585783499 0.030551509262693843 0.0246174636962107 1.6947267547776288 1.7163336504060023 -1.6713549523713191 -0.7540123661350552 3.6568299608157937 0.35821079401093836 -0.8049377130350464 -1.3389477107151582 0.8722338049818482 -0.7155739688920906 -0.5524515447740809 -0.29952198345689485 0.14727463711818406 12.010930270213352 -0.9479129466269698 0.4208836450541558 -0.44050213240847375 -2.518911708995601 0.8015258229983334 -16.160607352700566 -0.24342316420566734 -6.977045336120429 2.691477263467991 -16.556604547423586 77.130681278678 1.121773674819352 9.026498021338265 -19.220203119676526 7.042967042260563 79.20515777397148 8.051542444187605 0.45040546824925953 3.821089501044504 4.4954709474325565 -0.12787227296305215 -1.5805097145159284 0.035870187242917184 -0.023928188281302974 -56.197582658205896 -0.023793121289690917 -0.04449472083456272 -56.24580877344443 -38.75934211084573 -0.00651332896377076 -0.02838510557880521 -0.007232670142404499 -0.01714246107686516 -0.0031501200941129967 0.0037309890224895936 -0.038246105407444324 -0.0025158641021098887 -36.690562659808144 0.014087739516264504 0.014783522114688126 0.007754845822661264 0.03567075257187808 0.03381991753011478 -0.0007637018279920795 -0.040277865324810695 0.04534181400531373 -19.767075044448667 -0.04773704044263848 -0.03225273976218979 -0.04990582692237591 0.04886805333023788 0.024476198416377618 -0.015647411687298954 -0.014980196960755936 -0.017744940513617365 24.089326754462036 -0.04019218831416431 -0.034271277777883934 28.853928923072903 -0.02514237511554578 -0.047773250494322725 28.815341762167332 0.043612847799980065 -0.017197473567605027 6.605755225255822 1.7497579204058764 14.469190251133917 -75.9814022917896 19.208769498239068 -9.365048585142901 15.088031087916976 4.07986455448918 -57.8435512413974 -15.937775390757668 6.69711405972036 -3.0243122510752065 -0.4385591185817276 0.11573065813507029 -8.137708526931691 0.04261775878784839 0.03597108329204759 44.53001133371746 0.041756446767424744 0.02408367321953534 44.58805795662681 12.441528102876795 -0.024656230505763793 -0.04351465619738386 0.046783071972385064 0.019383448253770644 -0.009381107749948442 -0.026545509745021862 0.02993207408103119 0.039349791851251495 11.089127227863482 -0.0029733802557848034 0.042158830675194395 0.03829810262476832 -0.007084104246024607 0.016014121416510287 -0.016093555197902194 0.014225822716505977 0.0293652292699344 4.792795295613431 -0.03574092390554449 0.009594408799775186 0.017772850296330436 0.015722770772286756 -0.00408949980043739 -0.0006754847157634479 -0.0065202017247743245 0.04479154010160406 -5.6298931777667764 0.0053013278497044646 0.04588218942221692 -6.707007419592532 0.026079594171426294 -0.013504974999008532 -6.7599641762166325 -0.008282294520725104 -0.00015595597256259615 -0.03981206826829678 0.03792260318739053 -0.02702713207188763 8.045453379945922 3.5203194769394317 -19.202981064831224 0.04450018789584404 10.378473513389132 -0.014116449074353284 -5.575984829569802 -15.660764346950073 3.1579609101023984 -0.01792131655483954 -0.03944362579735083 -0.007985889631226541 -0.02818870328374971 4.687132596951114 0.015927062031088717 12.464011345793514 -8.239873765818725 6.9019761322696365 0.044872913059916544 46.3549972742305 -0.044653797068948606 -4.3118878552137 -14.792205804372703 -3.8385730017383684 -0.010482628968122921 -0.03711921749786327 -0.04191097822927805 0.007518109366731038 -10.767870484390752 0.04090340372432373 
0.03121593723560602 0.043095342331668694 0.012203830965396584 -0.04182291864262795 0.015334276692603023 -0.013556644998604123 1.4422887229963792 1.6256076226740264 -1.6568717070583756 -0.6561658654709828 3.6288085311319347 0.39056957899713424 -0.8391964228770868 -1.448480167792221 0.9092068385889899 -0.7404467131549922 -0.6366507667194468 -0.3051457017942923 0.09630592321733332 12.138809393119018 -0.9799832787071237 0.4497285185790472 -0.49386500725449634 -2.6198399820750216 0.8239962338475826 -16.153531623855006 -0.2131033739070915 -6.446699817940328 2.5386827815935273 -16.50467941899265 77.0988876828578 0.6846813761535627 8.718046630804604 -19.206597998143994 7.965615114614507 75.24976666195958 9.015113394954168 0.4672408354808711 4.406199798101084 4.496720558473211 -0.0920563902791294 -1.5988532151573975 0.03937623472965054 -0.02827105135261687 -56.21240935159114 0.012735022619021588 0.012603726023696677 -56.21404229076772 -38.76034305723586 0.03986664061959223 0.00938028771501156 -0.0330515560006164 0.02687862981220203 0.026753066842513915 0.015414737617453732 0.026754060487062237 0.04286318377089507 -36.651814701166366 0.011545763549803793 -0.01538375901772956 0.008756044628916248 -0.0021586083130349324 -0.013297116485526495 0.008917891605005574 -0.02438256593024572 -0.003962929600767725 -19.725277503775363 -0.017440190814942007 0.02900994901106786 -0.029926981318119994 -0.03968043855105804 0.04257162380024981 0.008063682826110596 -0.00809964599282493 -0.015337360065433405 24.025766779564297 0.026826514598586246 -0.028740052160277897 28.909057555457004 -0.022042195217025256 0.026219965769426246 28.837815533445937 0.044492413294625305 -0.035241937647238125 6.277293429037879 1.7029565929291661 14.493012389602859 -76.55615045963113 17.56192646445236 -9.108324537396326 15.501161155811902 6.644698511061059 -55.43416186447414 -17.0304810378866 8.724838020639822 -4.263348710564342 -0.46392276286135253 0.020233746928674315 -8.15918179782261 -0.03656098628444457 -0.01588076762647618 44.5370502134098 -0.013914232555887805 0.04489682433392727 44.52787000782323 12.500677116748124 0.003958862198703802 0.00247619099277082 0.014452592043617407 0.03392931290654044 -0.03269347777296651 -0.00834369446250804 0.04670818221440663 -0.02605433507939157 11.084663664028076 0.030483943269951762 0.032238202299240154 0.025748485119481614 -0.01806437197768859 -0.02507947445909839 -0.018620301633606548 0.02361954506719263 0.015349660525062899 4.74791758326186 -0.02439557440960109 0.03445100478860165 -0.006231100826934456 -0.017179595830916508 0.0267755879844436 0.012259715407074824 -0.01701264825072699 -0.030887139822721957 -5.61715718285773 0.014382270482191314 0.020487934859766327 -6.700449857234072 -0.024442232785142633 -0.026695073341256582 -6.692132265460765 0.021550358379477098 -0.03486290891703186 0.03372218513400775 0.017594581538510897 0.013022923486376502 8.047026688078594 3.4891872550421734 -19.206028045883688 -0.02950298846587378 10.433610416977334 0.037499385962267054 -5.627033843250757 -15.662789710272069 3.1906983527949633 -0.010186550967216481 -0.03185621991573528 -0.029892961613696596 -0.04821438100813775 4.656889547946087 0.04249228348898027 12.460335503935713 -8.213217224228483 6.8970762085838295 0.0022817982956231785 46.39414559075202 0.025785328186539013 -4.367817761764513 -14.76248099175641 -3.7862188600495053 0.0025159247907400924 0.009438614817593663 0.03609489406023788 -0.03922414100770094 -10.761285706078924 0.025210547148671825 
-0.04615076962669753 0.009839537886907819 0.015503426290540634 0.009296103397801103 0.013151930650572297 0.019823327888203145 0.8862222557075486 1.5772352434675192 -1.596725930277154 -0.5910553929042396 3.701712902183992 0.30631214883890806 -0.8174240314581047 -1.445326626616036 0.9255519278496539 -0.7426854151719336 -0.6781592762849863 -0.4062713930560562 0.053095664553884966 12.262645040429506 -0.9702012037496979 0.4499477163064752 -0.5078972897505573 -2.6943827691542186 0.883817984654025 -16.042098495664323 -0.24617348503510855 -5.481489680857754 2.2731915027831553 -16.229776581609087 76.69514880194512 1.5370520541069885 8.516244336109317 -19.246811203438817 8.56045457033907 73.73224360202555 10.103137754443289 0.5117905888137068 4.7896571485764055 4.573770802144792 -0.09882012779053141 -1.6237763857720822 -0.016978144358110084 -0.00921139303214738 -56.234192250525815 0.024575913922439817 0.007197465888632533 -56.25319655022968 -38.79906998683154 0.0029615237974246287 0.0372630033386049 0.03654579164246813 0.025096400231801066 -0.00933001694223014 0.046903934077362285 0.0074207121838704634 -0.007051511723186791 -36.70647574306123 0.03707882975717418 0.004434466280217578 -0.015805400130409344 0.006821695354360959 -0.04756925437143419 -0.005457286074776921 -0.0400863486492899 0.04483243520288724 -19.722354430920685 -0.00510041984563765 -0.00876392356758154 0.02483252843671865 0.035371752247934415 -0.02199908534755047 -0.0306659307650624 0.024001173425121383 -0.007931816824258132 24.05564731671034 -0.011992586084137164 -0.016492071064470013 28.8351109522638 -0.031878407420859504 -0.04883497807733808 28.88026537807403 0.04621416788349091 -0.003537172932361403 5.674557252413449 1.518390860954548 14.456008535080038 -76.93980701373407 16.90689938023914 -8.952709478621475 15.878384723658115 7.706985691209633 -55.88726598952868 -17.964440352611632 10.523077214306987 -5.505200189506619 -0.5207711903662434 0.10912260798671136 -8.167822270243786 0.01382136394152423 -0.005497905139800519 44.581850881714324 -0.017160715906788557 0.019591797196860817 44.59537887842743 12.434649218433222 0.045641629701169625 -0.046872390400696205 0.029278843435311414 0.0122631488991022 0.021621274148951583 0.02127981884501848 0.024561092970333393 0.015933101899994504 11.063865261647113 0.045891592963703 0.001065738386604617 -0.01003448231847957 -0.004430481725203572 0.04132838396392324 -0.002270121366916457 -0.045876698862157075 -0.03202093783421748 4.738754669055719 0.031580065397950885 0.006580569074133054 0.01436303242907674 0.02868440203018906 -0.03141349698499907 0.002141208377508612 -0.03932513124243879 -0.04216958376896346 -5.573029946507398 0.00597333881315741 -0.014497675804924738 -6.7213135141601645 0.0011747162244178538 0.014840531666274134 -6.770571390333384 0.009631494332241544 0.01273009230479722 -0.045847550437203524 0.0037402487800138424 0.02244017547632759 8.070950557511557 3.4740482108022896 -19.227271941655708 0.030586240656473394 10.368018689234951 0.05968726819149753 -5.631591206905417 -15.63852681950528 3.1779418522422467 -0.007280008002129355 -0.021545628641679117 -0.010508681776484102 0.009016868284766609 4.689152691059122 0.04776039242436101 12.412761112662515 -8.247140481716329 6.837978961775222 -0.02732081982356819 46.374663722971675 0.02238273448494971 -4.364402001276725 -14.739659447050403 -3.797545444488296 0.007969437581045374 -0.025160510613661764 0.04479422515053622 -0.012555244869726874 -10.792714447462572 -0.013949474869937637 
0.02165593334191935 -0.004903351349551223 -0.04104196192750384 0.01971208998026278 0.03844213775934574 0.045417713000104665 0.1486191281325803 1.4197714068980682 -1.4679764508921491 -0.6057767021448253 3.7529269668677427 0.3426327516420397 -0.7674500773200562 -1.5518657766590915 0.9549536346859189 -0.7658359234935467 -0.6209877201383942 -0.3466240849385203 0.1400031600941661 12.479494777345348 -1.004282573994618 0.5013100748655008 -0.5682003751899865 -2.9723318544923916 0.8837033209235742 -15.923904927934442 -0.2658394470942613 -4.307576223060997 1.9230607714877366 -15.822042653538995 75.62400500236825 3.444977814605802 8.516228490427151 -18.791676347379635 8.644462660460782 75.15335676357157 11.241333363859818 0.4448294007644223 4.759680626837467 4.517647450495063 -0.16505284770878811 -1.6343841699470694 0.03869446042909274 -0.04102648834789717 -56.199386967659386 -0.04081185509934009 -0.04013800045218414 -56.207985982821256 -38.81036743428958 0.008060142147209112 0.007542875528396992 0.04608815653346376 -0.0030369521465761096 -0.02739812949833803 0.023582579416798914 -0.03333490380584732 -0.04244802248022286 -36.68819051199609 -0.027466624363080606 -0.015630316579462237 -0.042518971158919595 -0.02141732013265436 0.018680439296656484 -0.009991584729955608 -0.015513983776733435 0.02424592802274617 -19.767629002909498 -0.02592016509712677 0.002205455383024669 0.009053871904456327 -0.0436484550471017 0.02597340870210791 0.04997319481691926 -0.03432290663718573 0.010773374769839483 24.040595060643547 0.03648309082071805 0.0025208501351260825 28.81867631632816 0.005996752937846953 -0.014071319357662121 28.908374655442405 0.023511470200440327 0.031886324102150164 5.009608369450891 1.4491021862806877 14.45261674468437 -76.76815206992904 17.599343008274882 -8.86210709212021 16.509216291971708 6.431461059260288 -59.84820924062135 -18.43700891161735 11.824141268857982 -6.6190418977281045 -0.4998691507903386 0.018540006515317738 -8.134119613203712 0.00899892909140651 0.016850375135948174 44.56756005429225 0.023188476081041614 -0.016370589736198836 44.59852134824003 12.4719922100964 0.02873369089017234 -0.011906187818748621 -0.03448707563077375 0.03353599413808049 -0.0353172209367911 -0.011452822294020915 -0.010719823914794608 -0.024077227601868527 11.120693056824734 0.011689046410082136 0.002659250616926434 0.035235961500485094 0.04206182354276809 -0.028778204672569044 0.03708022634246042 0.030031166034123553 0.04320073229060595 4.789656366770953 0.02557756378825118 0.01610706445602757 -0.029000563763792512 0.04896858234338251 0.037673634861194794 0.00644547742216204 -0.01234955539655164 -0.02152355454668256 -5.621738016287504 0.020663233007676744 -0.005097148418255676 -6.700729496847898 -0.02328186865141155 -0.005130746618653321 -6.697126339683777 0.027425220511767014 -0.04950796573242292 0.014007797689580537 -0.010904358874850929 0.00920222608137273 8.027198631170187 3.4720143132214476 -19.17335255965019 0.0021174220935931574 10.390719885797125 0.050104667479531476 -5.652904739539795 -15.693572946501694 3.2010041624853485 -0.03413282195254959 -0.009422631361515693 -0.01897956914304251 0.02068083171523153 4.688588920497843 -0.011055013728750568 12.427956812292484 -8.222375957784356 6.880411341773148 0.04188602124739391 46.417895195171674 0.0004797319230205172 -4.337723830405559 -14.789916286679492 -3.8726771073572577 -0.037724555605398766 0.026841260274247943 0.00911487172299309 0.01858081116185331 -10.740018187965095 0.0061650449012354645 
